<svg width="73" height="13" viewBox="0 0 73 13" fill="none" xmlns="http://www.w3.org/2000/svg">
<path fill-rule="evenodd" clip-rule="evenodd" d="M42.6 6.24485C42.6 6.89685 42.8913 6.98291 43.5611 6.98291C45.2945 6.98291 45.7412 5.45485 45.7412 4.15085C45.7412 2.17659 44.7627 1.40486 43.6126 1.40486C42.7375 1.40486 42.6 1.55921 42.6 2.03955V6.24485ZM38.498 12.4922V11.8402C39.7165 11.7888 39.854 11.7032 39.854 10.8276V2.27996C39.854 1.40486 39.7165 1.3188 38.498 1.26687V0.614868H43.8184C45.2089 0.614868 46.3244 0.752384 47.1654 1.26687C48.0068 1.78231 48.6247 2.72617 48.6247 4.09893C48.6247 5.36975 48.1612 6.29582 47.3029 6.91416C46.5134 7.48057 45.2431 7.77243 43.6299 7.77243H42.6V10.8276C42.6 11.7032 42.7375 11.7888 44.2478 11.8748V12.4922H38.498Z" fill="black"/>
<path fill-rule="evenodd" clip-rule="evenodd" d="M53.0702 11.909C54.2718 11.909 54.7695 10.5872 54.7695 8.28742C54.7695 5.98716 54.2718 4.66585 53.0702 4.66585C51.8518 4.66585 51.3542 5.98716 51.3542 8.28742C51.3542 10.5872 51.8518 11.909 53.0702 11.909ZM57.4991 8.28742C57.4991 11.0334 56.1773 12.6985 53.0702 12.6985C49.9468 12.6985 48.625 11.0334 48.625 8.28742C48.625 5.54095 49.9468 3.87585 53.0702 3.87585C56.1773 3.87585 57.4991 5.54095 57.4991 8.28742Z" fill="black"/>
<path fill-rule="evenodd" clip-rule="evenodd" d="M61.4293 4.08203V4.73403L60.9485 4.78596C60.6052 4.8201 60.5369 4.95713 60.6393 5.33458L61.9438 10.0553H61.9957L63.5921 4.08203H65.3942L67.1622 10.0553H67.2305C67.6599 8.44167 68.2263 6.26161 68.3806 5.40334C68.4321 5.07734 68.3979 4.88886 68.0892 4.83693L67.3507 4.73403V4.08203H70.904V4.73403C70.0284 4.80279 69.9082 4.92299 69.651 5.59278C69.3932 6.21064 69.0326 7.29202 68.6725 8.47629L67.4368 12.4921H65.5486L63.832 7.22278H63.7633L62.2015 12.4921H60.3138L58.8718 7.94402C58.5285 6.86264 58.4256 6.51885 58.0482 5.47258C57.8419 4.88886 57.6529 4.80279 56.9668 4.73403V4.08203H61.4293Z" fill="black"/>
<mask id="mask0_975_3730" style="mask-type:alpha" maskUnits="userSpaceOnUse" x="69" y="10" width="4" height="3">
<path d="M69.6074 10.0868H72.1767V12.6837H69.6074V10.0868Z" fill="white"/>
</mask>
<g mask="url(#mask0_975_3730)">
<path fill-rule="evenodd" clip-rule="evenodd" d="M69.6074 11.3855C69.6074 10.6316 70.1238 10.0868 70.8922 10.0868C71.674 10.0868 72.177 10.6316 72.177 11.3855C72.1486 12.1534 71.674 12.6837 70.8922 12.6837C70.1238 12.6837 69.6074 12.1534 69.6074 11.3855Z" fill="black"/>
</g>
<path fill-rule="evenodd" clip-rule="evenodd" d="M2.20359 1.0837C2.0805 1.02552 1.91221 0.996191 1.69728 0.996191H0.589939V2.43049H1.69728C1.94731 2.43049 2.15022 2.37664 2.306 2.2699C2.46131 2.16267 2.5392 1.97419 2.5392 1.70348C2.5392 1.39912 2.42765 1.19285 2.20359 1.0837ZM0.0292969 0.514404H1.88095C2.24734 0.514404 2.54257 0.618262 2.76808 0.825979C2.9931 1.0337 3.10562 1.32508 3.10562 1.7006C3.10562 2.02371 3.00512 2.305 2.80414 2.54445C2.60315 2.7839 2.29591 2.90362 1.88192 2.90362H0.589939V4.65335H0.0292969V0.514404Z" fill="black"/>
<path fill-rule="evenodd" clip-rule="evenodd" d="M5.62746 3.94164C5.75104 3.68776 5.81306 3.40455 5.81306 3.09298C5.81306 2.8117 5.76835 2.5833 5.67891 2.40684C5.53803 2.12892 5.29473 1.98997 4.9495 1.98997C4.64273 1.98997 4.42011 2.10825 4.28067 2.34482C4.14123 2.58138 4.072 2.86651 4.072 3.2002C4.072 3.52091 4.14123 3.78825 4.28067 4.00222C4.42011 4.2157 4.64081 4.32293 4.94373 4.32293C5.27646 4.32293 5.50389 4.19551 5.62746 3.94164ZM5.9424 1.93611C6.20926 2.19528 6.34245 2.57609 6.34245 3.07904C6.34245 3.56515 6.22513 3.96712 5.99001 4.28398C5.75536 4.60085 5.39042 4.75952 4.89613 4.75952C4.48406 4.75952 4.15662 4.61912 3.91428 4.3388C3.67195 4.05799 3.55078 3.68151 3.55078 3.20886C3.55078 2.70207 3.6782 2.29866 3.934 1.99814C4.18932 1.69811 4.53263 1.54761 4.96345 1.54761C5.34955 1.54761 5.67603 1.67743 5.9424 1.93611Z" fill="black"/>
<path fill-rule="evenodd" clip-rule="evenodd" d="M7.1994 1.63525L7.77976 4.01293L8.36877 1.63525H8.93759L9.52948 3.99899L10.1464 1.63525H10.6536L9.77711 4.65243H9.2506L8.63611 2.31706L8.04181 4.65243H7.51482L6.64453 1.63525H7.1994Z" fill="black"/>
<path fill-rule="evenodd" clip-rule="evenodd" d="M13.1761 2.903C13.1554 2.68326 13.1078 2.50776 13.0337 2.37602C12.8957 2.13176 12.6654 2.01011 12.3438 2.01011C12.1125 2.01011 11.9192 2.09377 11.7629 2.26206C11.6057 2.43035 11.523 2.64384 11.5139 2.903H13.1761ZM12.9943 1.71825C13.1943 1.81874 13.3463 1.94904 13.4506 2.10868C13.5516 2.26062 13.6189 2.43804 13.6526 2.64095C13.6824 2.77991 13.6973 3.00157 13.6973 3.30593H11.5028C11.5119 3.61318 11.5836 3.85888 11.7177 4.04448C11.8519 4.23008 12.0601 4.32288 12.3414 4.32288C12.6044 4.32288 12.8135 4.23537 12.9698 4.05938C13.0578 3.95793 13.1198 3.83965 13.1564 3.70598H13.655C13.642 3.81657 13.5982 3.94014 13.5242 4.07621C13.4497 4.21277 13.367 4.32384 13.2756 4.41039C13.1232 4.5604 12.9337 4.66186 12.7077 4.71475C12.5866 4.74456 12.45 4.75947 12.2971 4.75947C11.924 4.75947 11.6071 4.62291 11.348 4.3498C11.0883 4.07621 10.959 3.69396 10.959 3.20159C10.959 2.71692 11.0893 2.32361 11.3509 2.02117C11.6119 1.71873 11.9538 1.56775 12.3755 1.56775C12.5885 1.56775 12.7948 1.61775 12.9943 1.71825Z" fill="black"/>
<path fill-rule="evenodd" clip-rule="evenodd" d="M14.3535 1.6353H14.8353V2.15652C14.8747 2.05506 14.9714 1.93149 15.1252 1.7858C15.2796 1.64059 15.457 1.5675 15.658 1.5675C15.6671 1.5675 15.6835 1.56847 15.7061 1.57039C15.7282 1.57231 15.7667 1.57616 15.8215 1.58193V2.11709C15.7912 2.11132 15.7638 2.10747 15.7383 2.10603C15.7128 2.10411 15.6854 2.10314 15.6551 2.10314C15.3998 2.10314 15.2036 2.18537 15.0661 2.34933C14.9291 2.51377 14.8608 2.70321 14.8608 2.91718V4.65248H14.3535V1.6353Z" fill="black"/>
<path fill-rule="evenodd" clip-rule="evenodd" d="M18.3069 2.903C18.2863 2.68326 18.2386 2.50776 18.1646 2.37602C18.0266 2.13176 17.7963 2.01011 17.4746 2.01011C17.2433 2.01011 17.0501 2.09377 16.8938 2.26206C16.7366 2.43035 16.6539 2.64384 16.6447 2.903H18.3069ZM18.1252 1.71825C18.3252 1.81874 18.4771 1.94904 18.5815 2.10868C18.6825 2.26062 18.7498 2.43804 18.7834 2.64095C18.8132 2.77991 18.8281 3.00157 18.8281 3.30593H16.6337C16.6428 3.61318 16.7144 3.85888 16.8486 4.04448C16.9827 4.23008 17.1909 4.32288 17.4722 4.32288C17.7352 4.32288 17.9444 4.23537 18.1007 4.05938C18.1886 3.95793 18.2507 3.83965 18.2872 3.70598H18.7858C18.7728 3.81657 18.7291 3.94014 18.655 4.07621C18.5805 4.21277 18.4978 4.32384 18.4065 4.41039C18.254 4.5604 18.0646 4.66186 17.8386 4.71475C17.7174 4.74456 17.5809 4.75947 17.428 4.75947C17.0549 4.75947 16.738 4.62291 16.4788 4.3498C16.2192 4.07621 16.0898 3.69396 16.0898 3.20159C16.0898 2.71692 16.2201 2.32361 16.4817 2.02117C16.7428 1.71873 17.0847 1.56775 17.5064 1.56775C17.7194 1.56775 17.9256 1.61775 18.1252 1.71825Z" fill="black"/>
<mask id="mask1_975_3730" style="mask-type:alpha" maskUnits="userSpaceOnUse" x="19" y="0" width="3" height="5">
<path d="M19.2559 0.5H21.9211V4.75977H19.2559V0.5Z" fill="white"/>
</mask>
<g mask="url(#mask1_975_3730)">
<path fill-rule="evenodd" clip-rule="evenodd" d="M19.9958 3.99006C20.1319 4.20787 20.3507 4.31702 20.6517 4.31702C20.8854 4.31702 21.0772 4.21604 21.2277 4.0141C21.3782 3.81215 21.4532 3.52221 21.4532 3.14477C21.4532 2.76347 21.3758 2.48123 21.221 2.29803C21.0657 2.11532 20.8738 2.02348 20.6464 2.02348C20.3916 2.02348 20.1863 2.12109 20.0276 2.31679C19.8699 2.512 19.791 2.79905 19.791 3.17891C19.791 3.50154 19.8593 3.77224 19.9958 3.99006ZM21.1277 1.72778C21.2176 1.78403 21.3196 1.8826 21.4335 2.02348V0.499268H21.9211V4.65215H21.4648V4.23239C21.347 4.41847 21.2075 4.55262 21.0465 4.63532C20.8859 4.71803 20.7012 4.75938 20.4935 4.75938C20.1588 4.75938 19.8684 4.61801 19.6237 4.33529C19.3785 4.05256 19.2559 3.67656 19.2559 3.20679C19.2559 2.76732 19.3674 2.38651 19.591 2.06435C19.8146 1.7422 20.1343 1.58112 20.5493 1.58112C20.7796 1.58112 20.9724 1.63017 21.1277 1.72778Z" fill="black"/>
</g>
<path fill-rule="evenodd" clip-rule="evenodd" d="M24.8311 4.1967C24.9383 4.28084 25.0648 4.32315 25.2114 4.32315C25.3898 4.32315 25.5624 4.2818 25.7298 4.1991C26.0115 4.06255 26.1524 3.83848 26.1524 3.52691V3.11917C26.0904 3.15859 26.011 3.19177 25.9134 3.21822C25.8158 3.24466 25.7206 3.26341 25.6264 3.27447L25.3206 3.3139C25.1364 3.33842 24.9984 3.37689 24.9056 3.42882C24.7489 3.51729 24.6705 3.65769 24.6705 3.8505C24.6705 3.99715 24.7239 4.11207 24.8311 4.1967ZM25.899 2.82634C26.0154 2.81144 26.0933 2.76288 26.1327 2.68065C26.1553 2.63498 26.1663 2.57007 26.1663 2.48496C26.1663 2.31186 26.1048 2.18589 25.9827 2.10751C25.8596 2.02914 25.6836 1.99019 25.4552 1.99019C25.1907 1.99019 25.0032 2.06231 24.8926 2.20512C24.8311 2.28446 24.7907 2.40274 24.7719 2.55949H24.2988C24.308 2.18637 24.4286 1.92672 24.6604 1.78103C24.8917 1.63486 25.1609 1.56226 25.4663 1.56226C25.8211 1.56226 26.1086 1.62957 26.3303 1.76468C26.5496 1.90028 26.6597 2.1104 26.6597 2.39601V4.13419C26.6597 4.1866 26.6702 4.22891 26.6919 4.26113C26.7135 4.29286 26.7592 4.30873 26.8284 4.30873C26.851 4.30873 26.8765 4.30729 26.9044 4.30488C26.9328 4.302 26.9631 4.29767 26.9948 4.2919V4.66694C26.9159 4.68906 26.8558 4.70349 26.8145 4.70877C26.7731 4.71454 26.7169 4.71743 26.6452 4.71743C26.4707 4.71743 26.3438 4.6554 26.2649 4.53135C26.2236 4.46596 26.1947 4.37268 26.1779 4.25247C26.0745 4.38758 25.9259 4.50539 25.7326 4.60492C25.5393 4.70445 25.3259 4.75397 25.0931 4.75397C24.8133 4.75397 24.5844 4.66887 24.407 4.49962C24.2296 4.3294 24.1406 4.11736 24.1406 3.86204C24.1406 3.58268 24.2281 3.36583 24.4027 3.21197C24.5777 3.05858 24.8066 2.96386 25.0903 2.9278L25.899 2.82634Z" fill="black"/>
<path fill-rule="evenodd" clip-rule="evenodd" d="M27.4922 1.6353H27.974V2.06372C28.1168 1.88677 28.2678 1.76032 28.4274 1.68338C28.587 1.60597 28.7645 1.5675 28.9601 1.5675C29.3881 1.5675 29.6775 1.71704 29.8276 2.01563C29.9103 2.17911 29.9516 2.4128 29.9516 2.71716V4.65248H29.4362V2.75082C29.4362 2.56666 29.4088 2.41857 29.3544 2.30605C29.2645 2.11805 29.101 2.02429 28.8645 2.02429C28.7443 2.02429 28.6452 2.03631 28.5683 2.06083C28.4293 2.10218 28.3072 2.18488 28.2024 2.30846C28.1177 2.40799 28.0629 2.51088 28.0374 2.61715C28.012 2.72341 27.9995 2.87487 27.9995 3.07201V4.65248H27.4922V1.6353Z" fill="black"/>
<mask id="mask2_975_3730" style="mask-type:alpha" maskUnits="userSpaceOnUse" x="30" y="0" width="4" height="5">
<path d="M30.4863 0.5H33.1515V4.75977H30.4863V0.5Z" fill="white"/>
</mask>
<g mask="url(#mask2_975_3730)">
<path fill-rule="evenodd" clip-rule="evenodd" d="M31.2263 3.99006C31.3624 4.20787 31.5812 4.31702 31.8822 4.31702C32.1158 4.31702 32.3077 4.21604 32.4582 4.0141C32.6087 3.81215 32.6837 3.52221 32.6837 3.14477C32.6837 2.76347 32.6063 2.48123 32.4515 2.29803C32.2962 2.11532 32.1043 2.02348 31.8769 2.02348C31.622 2.02348 31.4167 2.12109 31.2581 2.31679C31.1003 2.512 31.0215 2.79905 31.0215 3.17891C31.0215 3.50154 31.0898 3.77224 31.2263 3.99006ZM32.3582 1.72778C32.4481 1.78403 32.55 1.8826 32.664 2.02348V0.499268H33.1515V4.65215H32.6952V4.23239C32.5774 4.41847 32.438 4.55262 32.2769 4.63532C32.1163 4.71803 31.9317 4.75938 31.724 4.75938C31.3893 4.75938 31.0989 4.61801 30.8542 4.33529C30.6089 4.05256 30.4863 3.67656 30.4863 3.20679C30.4863 2.76732 30.5979 2.38651 30.8215 2.06435C31.045 1.7422 31.3648 1.58112 31.7797 1.58112C32.0101 1.58112 32.2029 1.63017 32.3582 1.72778Z" fill="black"/>
</g>
<mask id="mask3_975_3730" style="mask-type:alpha" maskUnits="userSpaceOnUse" x="0" y="7" width="4" height="5">
<path d="M0 7.43811H3.37534V11.5766H0V7.43811Z" fill="white"/>
</mask>
<g mask="url(#mask3_975_3730)">
<path fill-rule="evenodd" clip-rule="evenodd" d="M1.54441 11.0977C1.73001 11.0977 1.88195 11.078 2.00167 11.0385C2.21468 10.9654 2.38922 10.8246 2.52481 10.6159C2.63348 10.4486 2.71137 10.2346 2.75897 9.9735C2.78686 9.81771 2.80032 9.67298 2.80032 9.5398C2.80032 9.02676 2.70079 8.62863 2.50125 8.34495C2.30219 8.06174 1.98148 7.9199 1.53864 7.9199H0.566412V11.0977H1.54441ZM0 7.43811H1.65452C2.21564 7.43811 2.65175 7.64006 2.96092 8.04347C3.23739 8.40793 3.37539 8.87482 3.37539 9.44411C3.37539 9.88359 3.29365 10.2807 3.13065 10.6356C2.84312 11.2631 2.34931 11.5766 1.64875 11.5766H0V7.43811Z" fill="black"/>
</g>
<path fill-rule="evenodd" clip-rule="evenodd" d="M6.11943 9.82719C6.09875 9.60746 6.05115 9.43196 5.9771 9.30021C5.83911 9.05595 5.60879 8.9343 5.28712 8.9343C5.05584 8.9343 4.86255 9.01797 4.70628 9.18625C4.54905 9.35454 4.46635 9.56803 4.45722 9.82719H6.11943ZM5.93768 8.64244C6.1377 8.74293 6.28964 8.87324 6.39398 9.03287C6.49495 9.18481 6.56227 9.36224 6.59593 9.56514C6.62574 9.7041 6.64064 9.92576 6.64064 10.2301H4.44616C4.45529 10.5374 4.52694 10.7831 4.66109 10.9687C4.79524 11.1543 5.00343 11.2471 5.28472 11.2471C5.54773 11.2471 5.75689 11.1596 5.91315 10.9836C6.00114 10.8821 6.06317 10.7638 6.09971 10.6302H6.59833C6.58535 10.7408 6.54159 10.8643 6.46754 11.0004C6.39302 11.137 6.31032 11.248 6.21896 11.3346C6.06654 11.4846 5.87709 11.5861 5.6511 11.6389C5.52994 11.6688 5.39338 11.6837 5.24048 11.6837C4.86736 11.6837 4.5505 11.5471 4.29133 11.274C4.03169 11.0004 3.90234 10.6182 3.90234 10.1258C3.90234 9.64111 4.03265 9.2478 4.29422 8.94536C4.5553 8.64292 4.89717 8.49194 5.31885 8.49194C5.53186 8.49194 5.73813 8.54195 5.93768 8.64244Z" fill="black"/>
<path fill-rule="evenodd" clip-rule="evenodd" d="M7.53237 8.5592L8.33823 11.0157L9.17775 8.5592H9.73262L8.59692 11.5764H8.05647L6.94336 8.5592H7.53237Z" fill="black"/>
<path fill-rule="evenodd" clip-rule="evenodd" d="M12.2132 9.82719C12.1925 9.60746 12.1449 9.43196 12.0709 9.30021C11.9329 9.05595 11.7025 8.9343 11.3809 8.9343C11.1496 8.9343 10.9563 9.01797 10.8 9.18625C10.6428 9.35454 10.5601 9.56803 10.551 9.82719H12.2132ZM12.0314 8.64244C12.2314 8.74293 12.3834 8.87324 12.4877 9.03287C12.5887 9.18481 12.656 9.36224 12.6897 9.56514C12.7195 9.7041 12.7344 9.92576 12.7344 10.2301H10.5399C10.549 10.5374 10.6207 10.7831 10.7548 10.9687C10.889 11.1543 11.0972 11.2471 11.3785 11.2471C11.6415 11.2471 11.8506 11.1596 12.0069 10.9836C12.0949 10.8821 12.1569 10.7638 12.1935 10.6302H12.6921C12.6791 10.7408 12.6353 10.8643 12.5613 11.0004C12.4868 11.137 12.4041 11.248 12.3127 11.3346C12.1603 11.4846 11.9708 11.5861 11.7449 11.6389C11.6237 11.6688 11.4871 11.6837 11.3342 11.6837C10.9611 11.6837 10.6442 11.5471 10.3851 11.274C10.1254 11.0004 9.99609 10.6182 9.99609 10.1258C9.99609 9.64111 10.1264 9.2478 10.388 8.94536C10.6491 8.64292 10.9909 8.49194 11.4126 8.49194C11.6256 8.49194 11.8319 8.54195 12.0314 8.64244Z" fill="black"/>
<mask id="mask4_975_3730" style="mask-type:alpha" maskUnits="userSpaceOnUse" x="0" y="0" width="73" height="13">
<path d="M0 12.8136H72.1762V0.500122H0V12.8136Z" fill="black"/>
</mask>
<g mask="url(#mask4_975_3730)">
<path fill-rule="evenodd" clip-rule="evenodd" d="M13.3906 11.5763H13.8979V7.43787H13.3906V11.5763Z" fill="black"/>
<path fill-rule="evenodd" clip-rule="evenodd" d="M16.5298 10.8657C16.6534 10.6118 16.7154 10.3286 16.7154 10.0171C16.7154 9.73577 16.6707 9.50738 16.5813 9.33091C16.4404 9.053 16.1971 8.91404 15.8518 8.91404C15.5451 8.91404 15.3225 9.03232 15.183 9.26889C15.0436 9.50545 14.9743 9.79058 14.9743 10.1243C14.9743 10.445 15.0436 10.7123 15.183 10.9263C15.3225 11.1398 15.5432 11.247 15.8461 11.247C16.1788 11.247 16.4062 11.1196 16.5298 10.8657ZM16.8447 8.86019C17.1116 9.11935 17.2448 9.50016 17.2448 10.0031C17.2448 10.4892 17.1275 10.8912 16.8924 11.2081C16.6577 11.5249 16.2928 11.6836 15.7985 11.6836C15.3864 11.6836 15.059 11.5432 14.8166 11.2629C14.5743 10.9821 14.4531 10.6056 14.4531 10.1329C14.4531 9.62614 14.5805 9.22273 14.8363 8.92221C15.0917 8.62218 15.435 8.47168 15.8658 8.47168C16.2519 8.47168 16.5784 8.6015 16.8447 8.86019Z" fill="black"/>
<path fill-rule="evenodd" clip-rule="evenodd" d="M19.7341 10.9384C19.8913 10.7403 19.9702 10.4441 19.9702 10.0494C19.9702 9.80895 19.9356 9.60267 19.8654 9.42958C19.7336 9.09733 19.4927 8.93096 19.1422 8.93096C18.7893 8.93096 18.5484 9.10646 18.4185 9.45795C18.3483 9.64595 18.3137 9.88444 18.3137 10.1734C18.3137 10.4066 18.3483 10.6047 18.4185 10.7682C18.5503 11.0798 18.7912 11.2356 19.1422 11.2356C19.3797 11.2356 19.5769 11.1365 19.7341 10.9384ZM17.8262 8.57323H18.3219V8.97327C18.4238 8.83624 18.5349 8.72998 18.6556 8.65497C18.8268 8.54245 19.0282 8.48572 19.26 8.48572C19.6028 8.48572 19.8937 8.61698 20.1327 8.87903C20.3717 9.14108 20.4914 9.51516 20.4914 10.0018C20.4914 10.659 20.3188 11.1288 19.974 11.4101C19.7552 11.589 19.5009 11.6779 19.21 11.6779C18.9821 11.6779 18.7907 11.6284 18.6364 11.5289C18.5455 11.4721 18.4445 11.3755 18.3334 11.2384V12.7795H17.8262V8.57323Z" fill="black"/>
<path fill-rule="evenodd" clip-rule="evenodd" d="M23.1214 9.82719C23.1007 9.60746 23.0531 9.43196 22.9791 9.30021C22.8411 9.05595 22.6107 8.9343 22.2891 8.9343C22.0578 8.9343 21.8645 9.01797 21.7082 9.18625C21.551 9.35454 21.4683 9.56803 21.4592 9.82719H23.1214ZM22.9396 8.64244C23.1397 8.74293 23.2916 8.87324 23.3959 9.03287C23.4969 9.18481 23.5642 9.36224 23.5979 9.56514C23.6277 9.7041 23.6426 9.92576 23.6426 10.2301H21.4481C21.4572 10.5374 21.5289 10.7831 21.663 10.9687C21.7972 11.1543 22.0054 11.2471 22.2867 11.2471C22.5497 11.2471 22.7588 11.1596 22.9151 10.9836C23.0031 10.8821 23.0651 10.7638 23.1017 10.6302H23.6003C23.5873 10.7408 23.5435 10.8643 23.4695 11.0004C23.395 11.137 23.3123 11.248 23.2209 11.3346C23.0685 11.4846 22.879 11.5861 22.6531 11.6389C22.5319 11.6688 22.3953 11.6837 22.2424 11.6837C21.8693 11.6837 21.5524 11.5471 21.2933 11.274C21.0336 11.0004 20.9043 10.6182 20.9043 10.1258C20.9043 9.64111 21.0346 9.2478 21.2962 8.94536C21.5573 8.64292 21.8991 8.49194 22.3208 8.49194C22.5338 8.49194 22.7401 8.54195 22.9396 8.64244Z" fill="black"/>
<path fill-rule="evenodd" clip-rule="evenodd" d="M24.8123 10.9145C24.9483 11.1323 25.1671 11.2415 25.4681 11.2415C25.7018 11.2415 25.8936 11.1405 26.0441 10.9385C26.1946 10.7366 26.2696 10.4467 26.2696 10.0692C26.2696 9.68791 26.1922 9.40567 26.0374 9.22247C25.8821 9.03976 25.6902 8.94792 25.4628 8.94792C25.208 8.94792 25.0027 9.04553 24.844 9.24122C24.6863 9.43644 24.6074 9.72349 24.6074 10.1033C24.6074 10.426 24.6757 10.6967 24.8123 10.9145ZM25.9441 8.65221C26.034 8.70847 26.136 8.80704 26.2499 8.94792V7.42371H26.7375V11.5766H26.2812V11.1568C26.1634 11.3429 26.0239 11.4771 25.8629 11.5598C25.7023 11.6425 25.5176 11.6838 25.3099 11.6838C24.9753 11.6838 24.6848 11.5425 24.4401 11.2597C24.1949 10.977 24.0723 10.601 24.0723 10.1312C24.0723 9.69176 24.1838 9.31094 24.4074 8.98879C24.631 8.66664 24.9507 8.50556 25.3657 8.50556C25.596 8.50556 25.7888 8.55461 25.9441 8.65221Z" fill="black"/>
<path fill-rule="evenodd" clip-rule="evenodd" d="M30.9939 10.8975C31.1299 10.6797 31.1987 10.3922 31.1987 10.0354C31.1987 9.71808 31.1299 9.45507 30.9939 9.24639C30.8568 9.03819 30.6558 8.93385 30.3899 8.93385C30.1582 8.93385 29.9553 9.01944 29.7812 9.19013C29.6067 9.36131 29.5196 9.64307 29.5196 10.0354C29.5196 10.3191 29.5552 10.5489 29.6269 10.7259C29.761 11.0581 30.0101 11.2245 30.376 11.2245C30.651 11.2245 30.8568 11.1154 30.9939 10.8975ZM29.0547 7.42358H29.5475V8.9252C29.6591 8.78095 29.7918 8.67036 29.9461 8.59439C30.1014 8.51842 30.2688 8.48044 30.45 8.48044C30.827 8.48044 31.1328 8.6093 31.3675 8.8675C31.6026 9.1257 31.7199 9.50652 31.7199 10.0099C31.7199 10.4869 31.604 10.8836 31.3718 11.199C31.14 11.5144 30.8188 11.6722 30.4072 11.6722C30.1774 11.6722 29.9832 11.6169 29.8245 11.5063C29.7307 11.4404 29.6298 11.3351 29.522 11.1904V11.5765H29.0547V7.42358Z" fill="black"/>
<path fill-rule="evenodd" clip-rule="evenodd" d="M34.1934 8.5592H34.754C34.6829 8.7525 34.5237 9.19437 34.278 9.88388C34.0939 10.4027 33.94 10.8253 33.816 11.1528C33.5232 11.9216 33.3169 12.3914 33.1967 12.5597C33.0765 12.7289 32.8702 12.8135 32.5774 12.8135C32.5062 12.8135 32.4514 12.8107 32.413 12.8049C32.3745 12.7991 32.3269 12.789 32.2706 12.7741V12.312C32.3591 12.3361 32.4221 12.3515 32.4615 12.3568C32.5009 12.3625 32.536 12.3654 32.5659 12.3654C32.6601 12.3654 32.7284 12.35 32.7726 12.3188C32.8168 12.288 32.8539 12.25 32.8837 12.2053C32.8933 12.1904 32.9269 12.1135 32.9846 11.975C33.0428 11.8355 33.0851 11.7331 33.1116 11.6653L31.9961 8.5592H32.5707L33.3794 11.0167L34.1934 8.5592Z" fill="black"/>
</g>
</svg>